# xmcd CD database file
#
# Track frame offsets:
#	150
#	21330
#	39282
#	89345
#	90560
#	108450
#	133680
#	167325
#	199360
#	239205
#	285380
#
# Disc length: 4000 seconds
#
# Revision: 6
# Processed by: cddbd v1.5.2PL0 Copyright (c) Steve Scherf et al.
# Submitted via: CDex 1.50
#
DISCID=930f9e0b
DTITLE=Popa Chubby - Hit The High Hard One (Live)
DYEAR=1996
DGENRE=Blues
TTITLE0=Heart Attack And Vine
TTITLE1=Caffeine And Nicotine
TTITLE2=Long Distance Pain
TTITLE3=Size 13
TTITLE4=What's So Great About Rock And Roll
TTITLE5=Stoop Down Baby
TTITLE6=Trail Of Tears
TTITLE7=Isis
TTITLE8=Sweet Goddess Of Love And Beer
TTITLE9=San Catri
TTITLE10=Wild Thing
EXTD=\n YEAR: 1996
EXTT0=
EXTT1=
EXTT2=
EXTT3=
EXTT4=
EXTT5=
EXTT6=
EXTT7=
EXTT8=
EXTT9=
EXTT10=
PLAYORDER=
